HIERARCHY
ROOT pelvis
{
	OFFSET 0.000000 0.000000 0.000000
	CHANNELS 6 Xposition Yposition Zposition Zrotation Xrotation Yrotation
	JOINT lfemur
	{
		OFFSET 11.446000 0.000000 0.000000
		CHANNELS 3 Zrotation Xrotation Yrotation
		JOINT ltibia
		{
			OFFSET 0.000000 -42.030400 0.000000
			CHANNELS 3 Zrotation Xrotation Yrotation
			JOINT lfoot
			{
				OFFSET 0.000000 -39.930200 0.000000
				CHANNELS 3 Zrotation Xrotation Yrotation
				JOINT ltoes
				{
					OFFSET 0.000000 0.000000 11.775800
					CHANNELS 3 Zrotation Xrotation Yrotation
					End Site
					{
					    OFFSET 0.000000 0.000000 5.000000
					}
				}
			}
		}
	}
	JOINT rfemur
	{
		OFFSET -11.446000 0.000000 0.000000
		CHANNELS 3 Zrotation Xrotation Yrotation
		JOINT rtibia
		{
			OFFSET 0.000000 -42.030400 0.000000
			CHANNELS 3 Zrotation Xrotation Yrotation
			JOINT rfoot
			{
				OFFSET 0.000000 -39.930200 0.000000
				CHANNELS 3 Zrotation Xrotation Yrotation
				JOINT rtoes
				{
					OFFSET 0.000000 0.000000 11.775800
					CHANNELS 3 Zrotation Xrotation Yrotation
					End Site
					{
					    OFFSET 0.000000 0.000000 5.000000
					}
				}
			}
		}
	}
	JOINT thorax
	{
		OFFSET 0.000000 11.255600 -5.000000
		CHANNELS 3 Zrotation Xrotation Yrotation
		JOINT head
		{
			OFFSET 0.000000 43.799300 0.000000
			CHANNELS 3 Zrotation Xrotation Yrotation
			End Site
			{
			    OFFSET 0.000000 5.000000 0.000000
			}
		}
		JOINT lclavicle
		{
			OFFSET 0.000000 39.863000 0.000000
			CHANNELS 3 Zrotation Xrotation Yrotation
			JOINT lhumerus
			{
				OFFSET 17.380600 4.958300 0.000000
				CHANNELS 3 Zrotation Xrotation Yrotation
				JOINT lradius
				{
					OFFSET 0.000000 -27.561300 0.000000
					CHANNELS 3 Zrotation Xrotation Yrotation
					JOINT lhand
					{
						OFFSET 0.000000 -26.933000 0.000000
						CHANNELS 3 Zrotation Xrotation Yrotation
						End Site
						{
						    OFFSET 0.000000 -5.000000 0.000000
						}
					}
				}
			}
		}
		JOINT rclavicle
		{
			OFFSET 0.000000 39.863000 0.000000
			CHANNELS 3 Zrotation Xrotation Yrotation
			JOINT rhumerus
			{
				OFFSET -17.380600 4.958300 0.000000
				CHANNELS 3 Zrotation Xrotation Yrotation
				JOINT rradius
				{
					OFFSET 0.000000 -27.561300 0.000000
					CHANNELS 3 Zrotation Xrotation Yrotation
					JOINT rhand
					{
						OFFSET 0.000000 -26.933000 0.000000
						CHANNELS 3 Zrotation Xrotation Yrotation
						End Site
						{
						    OFFSET 0.000000 -5.000000 0.000000
						}
					}
				}
			}
		}
	}
}
MOTION
Frames:	8
Frame Time:	0.0333333
75.844200 87.304900 4.094900 -1.434720 0.214417 -88.961572 -5.238740 1.827033 -7.777005 0.000000 16.752926 -0.000000 -0.000000 -1.398056 9.105291 -0.000000 -1.319208 -0.000000 2.212914 2.012374 -4.210998 -0.000000 11.180802 -0.000000 0.000000 3.039881 -4.479243 -0.000000 -29.545454 -0.000000 -3.191728 0.518814 0.216862 19.896181 23.291928 1.569084 2.806749 0.000000 3.321330 88.188412 -6.226424 69.852807 0.000000 -9.914272 -66.065411 5.425425 0.307159 0.000000 -3.245308 0.000000 -2.463489 -75.487837 6.796318 -69.440760 0.000000 -18.337333 46.594989 -6.355876 -1.226352 0.000000 
75.866400 87.305400 4.160400 -1.411795 0.207613 -89.030302 -5.288409 1.772348 -7.733075 -0.000000 16.837081 -0.000000 -0.000000 -1.332426 9.026483 -0.000000 -1.319775 -0.000000 2.174576 1.913653 -3.945025 -0.000000 11.308635 -0.000000 -0.000000 2.990289 -4.653192 0.000000 -29.545034 -0.000000 -3.222541 0.548826 0.178544 19.876112 23.288626 1.752829 2.814063 0.000000 3.214610 88.105572 -5.993981 70.182352 -0.000001 -10.030660 -66.170356 5.471687 0.462532 -0.000000 -3.465294 0.000000 -2.563218 -74.994699 6.569851 -68.802396 0.000002 -18.911627 47.332366 -7.252253 -0.912234 0.000000 
75.900000 87.287500 4.192700 -1.406511 0.194071 -89.021835 -5.322434 1.733532 -7.806624 -0.000000 16.823881 0.000000 -0.000000 -1.401691 9.073164 0.000000 -1.317422 -0.000000 2.131861 1.681903 -3.937054 -0.000000 11.713986 -0.000000 0.000000 2.833114 -4.651981 -0.000000 -29.544973 0.000000 -3.294099 0.598123 0.153461 19.934013 23.297401 1.722291 2.784285 -0.000000 3.124125 88.133581 -5.899823 69.775871 -0.000000 -10.023874 -66.149867 5.366323 0.327170 0.000000 -3.446330 0.000000 -2.301799 -75.171015 6.924196 -69.471297 0.000001 -18.578056 46.688959 -6.398568 -1.211643 -0.000000 
75.962900 87.276200 4.233200 -1.358975 0.171828 -88.927949 -5.389603 1.556916 -7.974819 -0.000000 16.994674 0.000000 -0.000000 -1.380450 9.140119 -0.000000 -1.320100 -0.000000 2.098376 1.489691 -3.790646 -0.000000 11.951490 -0.000000 0.000000 2.758158 -4.894294 -0.000000 -29.545256 -0.000000 -3.360383 0.657808 0.182754 20.061477 23.221256 1.653814 2.653840 0.000000 2.940797 88.225364 -5.832003 69.374970 0.000000 -10.108899 -65.918146 5.330023 0.401851 0.000000 -3.306035 -0.000000 -2.378935 -75.362992 7.007018 -69.302415 0.000000 -18.479488 46.490010 -6.498290 -1.178093 0.000000 
76.035300 87.269900 4.254100 -1.294335 0.149947 -88.664837 -5.452535 1.240125 -8.258012 0.000000 17.411414 -0.000000 -0.000000 -1.400843 9.101805 -0.000000 -1.323695 -0.000000 2.098061 1.347623 -3.671813 -0.000000 12.067094 0.000000 -0.000000 2.749486 -5.277515 -0.000000 -29.545318 -0.000000 -3.456653 0.693171 0.166438 20.238986 23.166799 1.347437 2.538498 0.000000 2.983343 88.295912 -6.324986 69.345175 0.000000 -10.026281 -65.848578 5.616090 0.386504 0.000000 -3.214323 0.000000 -2.488108 -75.309434 7.209193 -69.181246 0.000000 -18.583963 46.731956 -6.557513 -1.159097 0.000000 
76.092300 87.273400 4.282000 -1.372703 0.100024 -88.337289 -5.527029 1.143939 -8.548830 0.000000 17.620406 0.000000 -0.000000 -1.374827 9.070828 0.000000 -1.326576 0.000000 2.033721 1.319900 -3.924521 0.000000 12.266313 -0.000000 0.000000 2.744303 -5.305547 0.000000 -29.545434 -0.000000 -3.575514 0.888393 0.005641 20.319547 23.200508 1.160754 2.418899 -0.000000 3.001185 88.387558 -6.716739 70.059707 0.000000 -9.859227 -66.068021 5.915654 0.611699 -0.000000 -3.250146 0.000000 -2.575294 -75.136966 7.137748 -69.489409 0.000001 -18.500849 46.882848 -6.652362 -1.127041 0.000000 
76.149900 87.291700 4.342900 -1.376174 0.040072 -87.986048 -5.613415 1.001480 -8.709997 -0.000000 17.795910 0.000000 0.000000 -1.192167 8.883255 0.000000 -1.330671 0.000000 1.962282 1.421740 -4.097086 0.000000 12.074352 -0.000000 -0.000000 2.820053 -5.483798 0.000000 -29.545485 0.000000 -3.675965 1.006710 -0.169024 20.388892 23.222715 0.909675 2.297175 0.000000 3.092612 88.351404 -7.154603 70.371675 -0.000000 -9.667233 -66.490413 6.244704 0.523056 -0.000000 -3.184625 0.000000 -2.497224 -75.074622 7.376361 -69.307636 0.000001 -18.622697 46.650054 -6.485637 -1.182938 0.000000 
76.260100 87.313800 4.408900 -1.265625 -0.017402 -87.698150 -5.701128 0.704010 -8.808000 -0.000000 17.961878 -0.000000 0.000000 -1.057819 8.729358 -0.000000 -1.333033 0.000000 1.869688 1.328789 -4.239537 0.000000 11.963519 -0.000000 0.000000 2.927150 -5.574224 0.000000 -29.545205 0.000000 -3.735612 1.017216 -0.246187 20.327337 23.355763 0.777359 2.220870 0.000000 2.932966 88.012713 -7.228987 70.630987 -0.000000 -9.822190 -66.713294 6.264006 0.375005 -0.000000 -3.165512 0.000000 -2.486914 -74.852664 7.528762 -69.118475 0.000000 -18.972013 46.627165 -6.784556 -1.082643 -0.000000 
